<svg width="660" height="706" viewBox="0 0 660 706" fill="none" xmlns="http://www.w3.org/2000/svg">
    <path
        d="M595.935 128.23C586.813 109.712 574.341 94.1576 559.889 81.2236L557.757 79.2686C484.378 13.9421 392.249 6.39006 392.249 6.39006C392.249 6.39006 286.006 -9.37417 186.904 8.61806C218.415 4.40257 317.618 5.1802 415.027 153.901C530.037 329.494 412.979 435.03 334.964 416.083C434.099 443.766 544.641 432.585 595.156 287.723C618.104 221.917 615.278 171.814 598.473 133.762C625.516 175.416 635.095 234.064 606.664 316C515.855 577.6 237.91 420.531 159.083 359.757C80.2379 298.984 -5.17299 164.96 62.9932 79.8763C71.5224 69.2281 83.0302 60.3432 96.6532 52.9431C67.7825 67.5065 43.5146 87.5278 27.9962 114.843C-48.8177 250.078 47.4238 445.85 136.287 542.448C225.133 639.044 538.379 888.7 640.713 472.897C683.123 300.628 649.936 194.06 595.935 128.23ZM136.896 309.88C134.019 303.628 125.016 277.474 151.822 236.627C181.979 190.683 257.473 139.985 348.13 152.782C348.13 152.782 385.327 156.457 402.047 186.513C398.9 180.467 395.515 174.335 391.843 168.109C305.417 21.3984 217.399 20.6298 189.425 24.7892C186.379 25.4041 183.35 26.0587 180.321 26.755C157.255 32.0627 134.882 39.8083 115.032 50.8887C103.372 57.9 93.5224 66.3202 86.2116 76.4077C36.9824 144.4 81.304 245.38 136.896 309.88Z"
        fill="url(#paint0_linear_20_51)" />
    <defs>
        <linearGradient id="paint0_linear_20_51" x1="-3386.8" y1="244.916" x2="1067.36" y2="244.916"
            gradientUnits="userSpaceOnUse">
            <stop stop-color="#22B115" />
            <stop offset="1" stop-color="#25A4D6" />
        </linearGradient>
    </defs>
</svg>